<svg xmlns="http://www.w3.org/2000/svg" xmlns:xlink="http://www.w3.org/1999/xlink" width="34.847" height="34.787" viewBox="0 0 34.847 34.787"><defs><clipPath id="a"><path d="M17.4-28.847h0a.394.394,0,0,0-.369.245.393.393,0,0,0,.093.433l3.328,3.3L23.745-21.6l3.29,3.268,2.974,2.951a.452.452,0,0,1,0,.637L27.058-11.77l-3.082,3.1-.185.187L21.024-5.692a.452.452,0,0,1-.637,0L17.734-8.327a.452.452,0,0,1,0-.637L20.5-11.748l.185-.187,2.766-2.787a.452.452,0,0,0,0-.637l-2.974-2.949-3.24-3.218-.052-.052-5.313-5.277A1.655,1.655,0,0,0,10-27.169,17.388,17.388,0,0,0,.47-7.592,17.388,17.388,0,0,0,17.526,5.94h.418a.393.393,0,0,0,.264-.678l-4.026-4L10.889-2,7.6-5.272,4.625-8.225a.452.452,0,0,1,0-.635l2.949-2.974,3.082-3.1.187-.187,2.764-2.784a.452.452,0,0,1,.637,0L16.9-15.277a.452.452,0,0,1,0,.637l-2.764,2.787-.187.185L11.183-8.882a.452.452,0,0,0,0,.637l2.972,2.951L17.4-2.076l.05.05,5.882,5.84a1.648,1.648,0,0,0,1.9.3A17.388,17.388,0,0,0,34.41-15.477,17.388,17.388,0,0,0,17.4-28.847Z" transform="translate(-0.035 28.847)" fill="none"/></clipPath><clipPath id="b"><path d="M-371,2368.343H2014.015V-1984H-371Z" transform="translate(371 1984)" fill="none"/></clipPath></defs><g transform="translate(-0.035 28.847)"><g transform="translate(0.035 -28.847)" clip-path="url(#a)"><g transform="translate(-458.51 -2416.098)" clip-path="url(#b)"><path d="M-4.965-33.847h47.2V13.3h-47.2Z" transform="translate(457.296 2443.766)" fill="#ff6712"/></g></g></g></svg>