<svg xmlns="http://www.w3.org/2000/svg" xmlns:xlink="http://www.w3.org/1999/xlink" width="126.224" height="34.788" viewBox="0 0 126.224 34.788"><defs><clipPath id="a"><path d="M62.858-5.563V-7.283H62.8c-.689,1.4-2.581,2.258-4.674,2.258-4.7,0-7.971-3.7-7.971-8.515,0-4.7,3.412-8.488,7.971-8.488A5.4,5.4,0,0,1,62.8-19.793h.056v-1.691h4.76V-5.569Zm0-7.971a4.04,4.04,0,0,0-1.183-2.861,4.04,4.04,0,0,0-2.861-1.183,3.968,3.968,0,0,0-3.9,4.1,3.977,3.977,0,0,0,1.144,2.83,3.977,3.977,0,0,0,2.812,1.185,3.976,3.976,0,0,0,3.986-4.071Z" transform="translate(-50.156 22.029)" fill="#06125a"/></clipPath><clipPath id="b"><path d="M-371,2368.343H2014.015V-1984H-371Z" transform="translate(371 1984)" fill="#06125a"/></clipPath><clipPath id="c"><path d="M86.3-5.564v-8.581c0-2.484-.8-3.412-2.437-3.412-1.806,0-2.637,1.091-2.637,3.182v8.807h-4.76v-8.771c0-2.064-.745-3.211-2.38-3.211-1.865,0-2.7,1.2-2.7,3.412v8.581H66.63V-21.479h4.444v1.691h.059a4.648,4.648,0,0,1,4.388-2.236,5.051,5.051,0,0,1,4.586,2.838,5.762,5.762,0,0,1,5.047-2.838c3.557,0,5.907,2.179,5.907,6.623v9.836Z" transform="translate(-66.63 22.023)" fill="#06125a"/></clipPath><clipPath id="e"><path d="M100.75-5.563V-7.283h-.059c-.677,1.4-2.579,2.258-4.672,2.258-4.7,0-7.973-3.7-7.973-8.515,0-4.7,3.412-8.488,7.973-8.488a5.393,5.393,0,0,1,4.672,2.236h.059v-1.691h4.76V-5.569Zm0-7.971a4.04,4.04,0,0,0-1.183-2.861,4.04,4.04,0,0,0-2.861-1.183,3.969,3.969,0,0,0-3.9,4.1,3.979,3.979,0,0,0,1.145,2.83,3.979,3.979,0,0,0,2.813,1.185,3.979,3.979,0,0,0,3.986-4.071Z" transform="translate(-88.046 22.029)" fill="#06125a"/></clipPath><clipPath id="g"><path d="M17.4-28.847h0a.394.394,0,0,0-.369.245.393.393,0,0,0,.093.433l3.328,3.3L23.745-21.6l3.29,3.268,2.974,2.951a.452.452,0,0,1,0,.637L27.058-11.77l-3.082,3.1-.185.187L21.024-5.692a.452.452,0,0,1-.637,0L17.734-8.327a.452.452,0,0,1,0-.637L20.5-11.748l.185-.187,2.766-2.787a.452.452,0,0,0,0-.637l-2.974-2.949-3.24-3.218-.052-.052-5.313-5.277A1.655,1.655,0,0,0,10-27.169,17.388,17.388,0,0,0,.47-7.592,17.388,17.388,0,0,0,17.526,5.94h.418a.393.393,0,0,0,.264-.678l-4.026-4L10.889-2,7.6-5.272,4.625-8.225a.452.452,0,0,1,0-.635l2.949-2.974,3.082-3.1.187-.187,2.764-2.784a.452.452,0,0,1,.637,0L16.9-15.277a.452.452,0,0,1,0,.637l-2.764,2.787-.187.185L11.183-8.882a.452.452,0,0,0,0,.637l2.972,2.951L17.4-2.076l.05.05,5.882,5.84a1.648,1.648,0,0,0,1.9.3A17.388,17.388,0,0,0,34.41-15.477,17.388,17.388,0,0,0,17.4-28.847Z" transform="translate(-0.035 28.847)" fill="none"/></clipPath><clipPath id="h"><path d="M-371,2368.343H2014.015V-1984H-371Z" transform="translate(371 1984)" fill="none"/></clipPath></defs><g transform="translate(-0.035 28.847)"><g transform="translate(61.973 -20.421)" clip-path="url(#a)"><g transform="translate(-520.448 -2424.524)" clip-path="url(#b)"><path d="M45.156-27.029h29.82V2.332H45.156Z" transform="translate(469.113 2445.374)" fill="#06125a"/></g></g><g transform="translate(82.33 -20.415)" clip-path="url(#c)"><g transform="translate(-540.805 -2424.531)" clip-path="url(#b)"><path d="M61.63-27.023H98.418V1.8H61.63Z" transform="translate(472.996 2445.375)" fill="#06125a"/></g></g><g transform="translate(108.795 -20.421)" clip-path="url(#e)"><g transform="translate(-567.27 -2424.524)" clip-path="url(#b)"><path d="M83.046-27.029h29.822V2.332H83.046Z" transform="translate(478.045 2445.374)" fill="#06125a"/></g></g><g transform="translate(0.035 -28.847)" clip-path="url(#g)"><g transform="translate(-458.51 -2416.098)" clip-path="url(#h)"><path d="M-4.965-33.847h47.2V13.3h-47.2Z" transform="translate(457.296 2443.766)" fill="#ff6712"/></g></g><path d="M46.985-7.431a4.76,4.76,0,0,1-4.444,2.378c-4.645,0-8-3.584-8-8.371,0-4.875,3.412-8.581,8-8.581A5,5,0,0,1,46.955-20h.059V-21.49h4.76V-7.264a10.815,10.815,0,0,1-.86,4.873c-1.147,2.208-4.272,3.9-8.258,3.9-4.5,0-7.427-2.552-7.829-5.591h5.505A2.806,2.806,0,0,0,43.114-2.5c2.407,0,3.87-1.581,3.87-4.473Zm.029-6.022a3.868,3.868,0,0,0-3.9-4.1A3.88,3.88,0,0,0,39.3-13.6a3.863,3.863,0,0,0,3.814,4.1,3.779,3.779,0,0,0,3.9-3.956Z" transform="translate(8.135 1.613)" fill="#06125a"/></g></svg>